<svg xmlns="http://www.w3.org/2000/svg" viewBox="0 0 244 256"><path d="M210.45 35.82 122 0 33.55 35.82 0 89l3.39 87.22L55 216.36 122 256l67-39.64 51.65-40.11L244 89Zm-20.34 22.77a1.5 1.5 0 0 1 2.12-2.12l4.7 4.7 4.71-4.7a1.49 1.49 0 0 1 2.12 0 1.51 1.51 0 0 1 0 2.12l-4.71 4.7 4.71 4.71a1.51 1.51 0 0 1 0 2.12 1.53 1.53 0 0 1-1.06.44 1.49 1.49 0 0 1-1.06-.44l-4.71-4.71-4.7 4.71a1.51 1.51 0 0 1-1.06.44 1.5 1.5 0 0 1-1.06-2.56l4.7-4.71ZM33.54 135.42a1.49 1.49 0 0 1 0 2.12 1.5 1.5 0 0 1-2.12 0l-8.48-8.48a1.5 1.5 0 0 1 0-2.12l8.48-8.48a1.5 1.5 0 1 1 2.12 2.12L26.12 128Zm171.08 29.22a7.41 7.41 0 0 1-7.41 7.41H46.79a7.41 7.41 0 0 1-7.41-7.41V91.36A7.41 7.41 0 0 1 46.79 84h150.42a7.41 7.41 0 0 1 7.41 7.41Zm16.44-35.58-8.48 8.48a1.5 1.5 0 0 1-2.12 0 1.49 1.49 0 0 1 0-2.12l7.42-7.42-7.42-7.42a1.5 1.5 0 0 1 2.12-2.12l8.48 8.48a1.49 1.49 0 0 1 0 2.12Z" fill="#041220"/><path d="M197.21 88H46.79a3.41 3.41 0 0 0-3.41 3.41v73.28a3.41 3.41 0 0 0 3.41 3.41h150.42a3.41 3.41 0 0 0 3.41-3.41V91.36a3.41 3.41 0 0 0-3.41-3.36ZM66.3 115.77a14 14 0 1 1 14 14 14 14 0 0 1-14-14Zm15.5 47.94 27.39-47.32L120.54 136 144 95.52l39.44 68.19Z" fill="#041220"/></svg>