<svg xmlns="http://www.w3.org/2000/svg" xmlns:xlink="http://www.w3.org/1999/xlink" viewBox="0 0 256 256"><symbol id="b" viewBox="-9.4 -15.7 18.7 31.4"><path fill="none" stroke="#FFF" stroke-width="6" stroke-linecap="round" stroke-linejoin="round" stroke-miterlimit="10" d="M-6.4-12.7 6.4 0-6.4 12.7"/></symbol><symbol id="a" viewBox="-57.9 -34 115.7 68"><circle fill="#FFE105" cx="-44.1" cy="-14.1" r="13.8"/><path fill="#58B78C" d="m18.5-34-23 39.8-11.2-19.3L-43.1 34h101L18.5-34z"/></symbol><path fill="#041220" d="M128 0 39.6 35.8 6 89l3.4 87.2L61 216.4l67 39.6 67-39.6 51.6-40.2L250 89l-33.6-53.2z"/><path fill="#4392F7" d="M192.6 166.4H63.4c-4.1 0-7.4-3.3-7.4-7.4V97c0-4.1 3.3-7.4 7.4-7.4h129.1c4.1 0 7.4 3.3 7.4 7.4v62c.1 4.1-3.2 7.4-7.3 7.4z"/><g transform="matrix(1.17 0 0 1.17 33.15 67.15)"><use xlink:href="#a" width="115.7" height="68" x="-57.9" y="-34" transform="translate(83.385 53.555) scale(.7569)" overflow="visible"/></g><use xlink:href="#b" width="18.7" height="31.4" x="-9.4" y="-15.7" transform="matrix(1 0 0 -1 221.76 128)" overflow="visible"/><use xlink:href="#b" width="18.7" height="31.4" x="-9.4" y="-15.7" transform="matrix(-1 0 0 1 34.19 128)" overflow="visible"/><g><use xlink:href="#b" width="18.7" height="31.4" x="-9.4" y="-15.7" transform="matrix(.5 0 0 -.5 196.494 63.293)" overflow="visible"/><use xlink:href="#b" width="18.7" height="31.4" x="-9.4" y="-15.7" transform="matrix(-.5 0 0 .5 202.827 63.293)" overflow="visible"/></g></svg>