<svg xmlns="http://www.w3.org/2000/svg" xmlns:xlink="http://www.w3.org/1999/xlink" viewBox="0 0 256 256" style="enable-background:new 0 0 256 256" xml:space="preserve"><style>.st4{fill:none;stroke:#fff;stroke-width:3;stroke-linecap:round;stroke-linejoin:round;stroke-miterlimit:10}</style><symbol id="c" viewBox="-57.9 -34 115.7 68"><circle fill="#FFE105" cx="-44.1" cy="-14.1" r="13.8"/><path fill="#58B78C" d="m18.5-34-23 39.8-11.2-19.3L-43.1 34h101L18.5-34z"/></symbol><path fill="#041220" d="M128 0 39.6 35.8 6 89l3.4 87.2L61 216.4l67 39.6 67-39.6 51.6-40.2L250 89l-33.6-53.2z"/><path fill="#4392F7" d="M203.2 172.1H52.8c-4.1 0-7.4-3.3-7.4-7.4V91.4c0-4.1 3.3-7.4 7.4-7.4h150.4c4.1 0 7.4 3.3 7.4 7.4v73.3c0 4-3.3 7.4-7.4 7.4z"/><g transform="matrix(1.17 0 0 1.17 33.15 67.15)"><use xlink:href="#c" width="115.7" height="68" x="-57.9" y="-34" transform="translate(83.728 53.783) scale(.8687)" style="overflow:visible"/></g><path class="st4" d="M38.5 119.5 30 128l8.5 8.5"/><path class="st4" d="m217.5 136.5 8.5-8.5-8.5-8.5"/><path class="st4" d="m197.2 69.1 5.7-5.8-5.7-5.8"/><path class="st4" d="m208.7 57.5-5.8 5.8 5.8 5.8"/></svg>