<svg xmlns="http://www.w3.org/2000/svg" viewBox="0 0 256 256" xml:space="preserve"><path fill="#041220" d="M216.4 35.8 128 0 39.6 35.8 6 89l3.4 87.2L61 216.4l67 39.6 67-39.6 51.7-40.1L250 89l-33.6-53.2zM42.7 138.6c1.2 1.2 1.2 3.1 0 4.2-.6.6-1.4.9-2.1.9s-1.5-.3-2.1-.9l-12.7-12.7c-1.2-1.2-1.2-3.1 0-4.2l12.7-12.7c1.2-1.2 3.1-1.2 4.2 0 1.2 1.2 1.2 3.1 0 4.2L32.1 128l10.6 10.6zM200 159c0 4.1-3.3 7.4-7.4 7.4H63.4c-4.1 0-7.4-3.3-7.4-7.4V97c0-4.1 3.3-7.4 7.4-7.4h129.1c4.1 0 7.4 3.3 7.4 7.4v62zm8.1-91.5c1.2 1.2 1.2 3.1 0 4.2-.6.6-1.4.9-2.1.9s-1.5-.3-2.1-.9l-4.2-4.2-4.2 4.2c-.6.6-1.4.9-2.1.9s-1.5-.3-2.1-.9c-1.2-1.2-1.2-3.1 0-4.2l4.2-4.2-4.2-4.2c-1.2-1.2-1.2-3.1 0-4.2 1.2-1.2 3.1-1.2 4.2 0l4.2 4.2 4.2-4.2c1.2-1.2 3.1-1.2 4.2 0 1.2 1.2 1.2 3.1 0 4.2l-4.2 4.2 4.2 4.2zm22.1 62.6-12.7 12.7c-.6.6-1.4.9-2.1.9s-1.5-.3-2.1-.9c-1.2-1.2-1.2-3.1 0-4.2l10.6-10.6-10.6-10.6c-1.2-1.2-1.2-3.1 0-4.2 1.2-1.2 3.1-1.2 4.2 0l12.7 12.7c1.2 1.2 1.2 3 0 4.2z"/><path fill="#041220" d="M192.6 92.6H63.4c-2.4 0-4.4 2-4.4 4.4v62c0 2.4 2 4.4 4.4 4.4h129.1c2.4 0 4.4-2 4.4-4.4V97c.1-2.4-1.9-4.4-4.3-4.4zM79.5 117.3c0-6.8 5.5-12.2 12.2-12.2s12.2 5.5 12.2 12.2c0 6.8-5.5 12.2-12.2 12.2s-12.2-5.4-12.2-12.2zm13 42.6 24.3-42 9.9 17.1 20.4-35.3 34.8 60.2H92.5z"/></svg>